<svg xmlns="http://www.w3.org/2000/svg" width="20" height="20" viewBox="0 0 20 20"><defs><clipPath id="99j6a"><path fill="#fff" d="M5 8h10v7c0 1-1 2-2 2H7c-1 0-2-1-2-2z"/></clipPath><clipPath id="99j6b"><path fill="#fff" d="M4 7c0-.5.5-1 1-1h10c.5 0 1 .5 1 1v1c0 .5-.5 1-1 1H5c-.5 0-1-.5-1-1z"/></clipPath><clipPath id="99j6c"><path fill="#fff" d="M7 5c0-.5.5-1 1-1h4c.5 0 1 .5 1 1v1c0 .5-.5 1-1 1H8c-.5 0-1-.5-1-1z"/></clipPath></defs><g><g><g><path fill="#f66d6d" d="M0 2c0-1 1-2 2-2h16c1 0 2 1 2 2v16c0 1-1 2-2 2H2c-1 0-2-1-2-2z"/></g><g><g><path fill="none" stroke="#fff" stroke-miterlimit="50" stroke-width="2" d="M5 8v0h10v7c0 1-1 2-2 2H7c-1 0-2-1-2-2z" clip-path="url(&quot;#99j6a&quot;)"/></g><g><path fill="none" stroke="#fff" stroke-miterlimit="50" stroke-width="2" d="M4 7c0-.5.5-1 1-1h10c.5 0 1 .5 1 1v1c0 .5-.5 1-1 1H5c-.5 0-1-.5-1-1z" clip-path="url(&quot;#99j6b&quot;)"/></g><g><path fill="none" stroke="#fff" stroke-miterlimit="50" stroke-width="2" d="M7 5c0-.5.5-1 1-1h4c.5 0 1 .5 1 1v1c0 .5-.5 1-1 1H8c-.5 0-1-.5-1-1z" clip-path="url(&quot;#99j6c&quot;)"/></g><g><path fill="none" stroke="#fff" stroke-linecap="round" stroke-miterlimit="50" d="M8.5 10.5v4"/></g><g><path fill="none" stroke="#fff" stroke-linecap="round" stroke-miterlimit="50" d="M11.5 10.5v4"/></g></g></g></g></svg>