<svg xmlns="http://www.w3.org/2000/svg" width="150" height="53" viewBox="0 0 150 53"><g><g><g><g><g><g><g><g><g><g><path fill="#fff" d="M142.306 35.846a2.402 2.402 0 0 0-.107.42 3.176 3.176 0 0 0-.01.884c.017.129.046.253.08.372a2.02 2.02 0 0 0 .3.627c.09.122.2.232.329.327s.274.176.439.243c.167.067.357.12.572.153.208.033.439.052.696.052h3.332V34.56h-3.084c-.26 0-.496.014-.705.043a3.62 3.62 0 0 0-.597.126 2.578 2.578 0 0 0-.47.198c-.138.077-.26.167-.362.265a1.88 1.88 0 0 0-.24.3 1.93 1.93 0 0 0-.173.354zM145 32.707h4.56a.379.379 0 0 1 .38.377v10.364a.38.38 0 0 1-.113.268.38.38 0 0 1-.267.112h-1.243a.375.375 0 0 1-.267-.112.375.375 0 0 1-.112-.268V40.78c-1.173 0-2.463.069-3.637-.022l-1.812 2.872a.378.378 0 0 1-.33.195h-1.473a.405.405 0 0 1-.205-.062.38.38 0 0 1-.162-.24.371.371 0 0 1 .054-.282l1.968-2.979a4.162 4.162 0 0 1-.584-.334 3.616 3.616 0 0 1-.776-.71l-.009-.012a3.697 3.697 0 0 1-.62-1.14 4.172 4.172 0 0 1-.208-1.312c0-.303.027-.596.08-.88.052-.281.13-.548.235-.801.105-.253.236-.49.394-.708.155-.218.338-.415.543-.592.203-.174.43-.329.678-.46a4.4 4.4 0 0 1 .827-.334c.294-.088.616-.155.969-.2.35-.046.727-.07 1.13-.07zm-13.198 4.9v4.344h2.69c.315 0 .599-.02.856-.053.265-.036.506-.088.718-.157.213-.067.4-.153.565-.25.167-.1.31-.213.43-.334l.002-.003a1.67 1.67 0 0 0 .38-.586l.002-.003c.045-.117.076-.24.1-.37.021-.13.033-.271.033-.415 0-.174-.012-.338-.033-.486a2.124 2.124 0 0 0-.11-.42 1.658 1.658 0 0 0-.453-.656 2.216 2.216 0 0 0-.396-.255 2.832 2.832 0 0 0-.51-.193 4.349 4.349 0 0 0-.635-.122 6.44 6.44 0 0 0-.739-.04h-2.897zm2.545 6.218h-4.166a.379.379 0 0 1-.268-.112.379.379 0 0 1-.112-.267V33.081a.379.379 0 0 1 .377-.38h1.243a.38.38 0 0 1 .38.377v2.648h3.206c.327 0 .642.022.94.06.305.04.592.102.856.179.28.083.537.186.773.305.246.124.467.267.67.427l.002.002a3.405 3.405 0 0 1 .99 1.326c.112.26.193.537.25.83.055.294.084.599.084.916 0 .277-.024.544-.074.799a3.562 3.562 0 0 1-.584 1.397 3.434 3.434 0 0 1-.503.568 4.08 4.08 0 0 1-.785.56c-.289.16-.608.294-.959.404a6.892 6.892 0 0 1-1.097.238 9.148 9.148 0 0 1-1.228.079zm-21.762-9.146a4.314 4.314 0 0 0-.744-.198 4.948 4.948 0 0 0-1.626 0c-.26.046-.51.112-.745.198a3.555 3.555 0 0 0-.655.317c-.2.124-.387.27-.551.43a3.031 3.031 0 0 0-.432.522c-.124.19-.231.4-.32.632a3.968 3.968 0 0 0-.202.768c-.046.279-.07.584-.07.918 0 .334.024.64.07.918.045.28.114.535.202.768.089.231.196.441.32.632a3.164 3.164 0 0 0 .983.952c.2.124.42.231.655.317.234.086.485.153.745.198a4.944 4.944 0 0 0 1.626 0c.26-.045.51-.112.744-.198.234-.086.453-.193.654-.317a3.156 3.156 0 0 0 1.302-1.584c.088-.233.157-.491.202-.768.046-.279.07-.584.07-.918 0-.334-.024-.64-.07-.918a4.014 4.014 0 0 0-.202-.768 3.128 3.128 0 0 0-1.302-1.584 3.71 3.71 0 0 0-.656-.317zm-3.71-1.796c.333-.119.684-.21 1.049-.271a6.716 6.716 0 0 1 2.208 0 5.969 5.969 0 0 1 2.018.718c.305.176.593.381.853.608.294.252.558.539.787.858.224.313.415.654.57 1.02.15.359.265.747.341 1.162.074.406.115.835.115 1.286 0 .453-.038.882-.115 1.285-.076.415-.19.801-.34 1.162a5.077 5.077 0 0 1-1.357 1.88 5.591 5.591 0 0 1-1.823 1.053c-.334.12-.684.21-1.05.272a6.72 6.72 0 0 1-2.207 0 5.975 5.975 0 0 1-2.018-.718 5.226 5.226 0 0 1-.854-.61 4.987 4.987 0 0 1-1.355-1.88 5.625 5.625 0 0 1-.34-1.161 7.16 7.16 0 0 1-.115-1.286c0-.45.038-.88.115-1.285.076-.415.19-.804.34-1.162a4.985 4.985 0 0 1 1.355-1.879 5.58 5.58 0 0 1 1.822-1.056zm-8.753 1.775c-.22-.081-.46-.14-.72-.181a5.298 5.298 0 0 0-.83-.062c-.449 0-.85.021-1.217.069a5.59 5.59 0 0 0-1.927.596c-.267.14-.534.305-.813.498v5.23a5.465 5.465 0 0 0 2.561 1.204c.368.067.761.106 1.186.106.272 0 .532-.02.777-.058.25-.038.487-.093.706-.166.215-.072.42-.163.613-.27a3.168 3.168 0 0 0 1.388-1.615 4.19 4.19 0 0 0 .227-.815 5.39 5.39 0 0 0 .076-.928c0-.32-.022-.62-.062-.899a4.584 4.584 0 0 0-.184-.792l-.002-.005a3.64 3.64 0 0 0-.3-.67 2.956 2.956 0 0 0-.408-.548 2.55 2.55 0 0 0-.485-.4 2.992 2.992 0 0 0-.593-.294zm-7.503 11.898V33.084c0-.103.043-.198.11-.267a.375.375 0 0 1 .267-.112h.83a.38.38 0 0 1 .36.269l.212.716c.196-.146.398-.275.61-.392.306-.166.63-.307.974-.42a7.08 7.08 0 0 1 1.22-.274c.435-.06.89-.088 1.372-.088.415 0 .818.034 1.204.096.384.064.752.16 1.095.288.346.129.668.289.964.48.293.19.565.412.803.663.243.255.465.543.658.86.189.31.349.644.477 1.007.124.348.22.722.284 1.123.062.389.096.8.096 1.228 0 .425-.036.833-.105 1.219a6.173 6.173 0 0 1-.313 1.128 5.238 5.238 0 0 1-1.23 1.882l-.003.002a5.133 5.133 0 0 1-.854.656 5.367 5.367 0 0 1-.992.477 6.109 6.109 0 0 1-1.101.286 7.531 7.531 0 0 1-2.409-.002 7.042 7.042 0 0 1-1.154-.291 6.461 6.461 0 0 1-.904-.391 6.06 6.06 0 0 1-.47-.277v3.601a.38.38 0 0 1-.377.38h-1.245a.377.377 0 0 1-.377-.377zm-5.63-11.877a4.312 4.312 0 0 0-.745-.198 4.948 4.948 0 0 0-1.626 0c-.26.046-.51.112-.744.198a3.549 3.549 0 0 0-.656.318c-.2.123-.386.269-.55.429a3.032 3.032 0 0 0-.433.522c-.124.19-.23.4-.32.632a3.967 3.967 0 0 0-.202.768 5.73 5.73 0 0 0-.069.918c0 .334.024.64.07.918.044.28.114.535.202.768.086.23.193.439.32.632.123.191.269.365.431.522.165.16.35.306.551.43.2.124.42.231.656.317.236.086.484.153.744.198a4.944 4.944 0 0 0 1.626 0c.26-.045.51-.112.744-.198.234-.086.454-.193.654-.317a3.154 3.154 0 0 0 1.302-1.584c.088-.233.157-.491.203-.768a5.73 5.73 0 0 0 .069-.918c0-.334-.024-.64-.07-.918a3.967 3.967 0 0 0-.202-.768 3.128 3.128 0 0 0-1.302-1.584 3.624 3.624 0 0 0-.656-.317zm-3.711-1.796c.333-.119.684-.21 1.049-.271a6.716 6.716 0 0 1 2.208 0 5.97 5.97 0 0 1 2.018.718c.308.176.594.381.854.608.293.252.558.539.787.858.224.313.415.654.57 1.02.148.359.264.747.34 1.162.075.406.115.835.115 1.286 0 .453-.038.882-.114 1.285-.077.415-.191.802-.341 1.162a4.88 4.88 0 0 1-.57 1.02 5.078 5.078 0 0 1-.787.859 5.59 5.59 0 0 1-1.822 1.054c-.334.12-.685.21-1.05.272a6.72 6.72 0 0 1-2.208 0 5.974 5.974 0 0 1-2.018-.718 5.232 5.232 0 0 1-.853-.61 4.984 4.984 0 0 1-1.355-1.88 5.622 5.622 0 0 1-.341-1.161 7.16 7.16 0 0 1-.115-1.286c0-.45.039-.88.115-1.285.076-.415.19-.804.341-1.162a4.987 4.987 0 0 1 1.355-1.879 5.58 5.58 0 0 1 1.822-1.056zm-11.748 1.72l-1.21 6.759c-.018.1-.045.205-.076.312a3.303 3.303 0 0 1-.09.258h5.907v-7.327h-4.529zM68.5 40.627l1.345-7.593a.364.364 0 0 1 .124-.232.375.375 0 0 1 .25-.095h7.463a.379.379 0 0 1 .38.377v8.845h.74a.38.38 0 0 1 .268.112c.069.07.112.165.112.267v3.42a.379.379 0 0 1-.377.38h-.932a.39.39 0 0 1-.25-.098.376.376 0 0 1-.125-.241l-.212-1.941h-8.671l-.21 1.929a.377.377 0 0 1-.377.35h-.933a.383.383 0 0 1-.267-.11.374.374 0 0 1-.112-.266v-3.358a.376.376 0 0 1 .358-.377c.248-.012.455-.052.625-.12a1.04 1.04 0 0 0 .386-.247c.105-.108.189-.246.253-.406.07-.169.122-.365.162-.584l.002-.012zm-10.686 1.3c.395.079.791.136 1.202.174.407.038.837.057 1.297.057.379 0 .73-.019 1.052-.052.333-.036.643-.089.923-.158.283-.069.54-.155.775-.252.233-.1.44-.213.62-.34.16-.111.3-.235.417-.364.117-.131.215-.27.291-.413l.01-.019c.08-.155.14-.32.178-.49a2.858 2.858 0 0 0 .029-.997 2.278 2.278 0 0 0-.09-.392 1.745 1.745 0 0 0-.146-.334 1.71 1.71 0 0 0-.196-.284l-.004-.007a1.9 1.9 0 0 0-.73-.527l-.007-.002a2.51 2.51 0 0 0-.487-.141 3.182 3.182 0 0 0-.563-.048h-4.788a.379.379 0 0 1-.38-.377v-1.099a.379.379 0 0 1 .377-.38h4.476a1.963 1.963 0 0 0 .768-.15c.112-.047.217-.107.315-.176.093-.066.177-.143.248-.226a1.468 1.468 0 0 0 .253-.4l.002-.008a1.334 1.334 0 0 0 .089-.489c0-.138-.01-.267-.034-.386a1.365 1.365 0 0 0-.107-.33 1.06 1.06 0 0 0-.186-.271 1.368 1.368 0 0 0-.293-.241l-.01-.007a2.433 2.433 0 0 0-.465-.217 4.489 4.489 0 0 0-.646-.172 7.78 7.78 0 0 0-.868-.115c-.325-.026-.69-.04-1.095-.04-.327 0-.649.014-.961.045a11.088 11.088 0 0 0-1.934.363c-.322.09-.649.195-.973.317h-.003a.374.374 0 0 1-.274-.007.385.385 0 0 1-.198-.191l-.439-.959a.378.378 0 0 1 .196-.496c.336-.148.699-.284 1.083-.403.367-.112.753-.21 1.156-.288.384-.074.792-.134 1.219-.174.415-.039.84-.06 1.273-.06.537 0 1.033.026 1.486.076a8.64 8.64 0 0 1 1.26.23c.395.104.741.235 1.044.39.315.162.584.348.806.556l.017.014c.162.158.303.327.424.503.122.182.222.375.298.578.077.2.134.407.17.62.035.214.055.436.055.663 0 .15-.01.295-.027.434-.016.14-.045.279-.078.41v.002a2.678 2.678 0 0 1-.139.382c-.055.121-.119.238-.193.348-.06.088-.126.177-.198.265-.071.086-.148.169-.229.245l-.067.065.084.05a3.513 3.513 0 0 1 1.078 1.009l.017.021a3.753 3.753 0 0 1 .484 1.052c.052.183.093.379.119.582a4.482 4.482 0 0 1-.062 1.557 4.119 4.119 0 0 1-.303.878 3.813 3.813 0 0 1-.491.77c-.189.231-.41.45-.666.651l-.014.012a5.05 5.05 0 0 1-.928.565 6.349 6.349 0 0 1-1.113.4c-.387.103-.811.184-1.274.237-.443.052-.923.079-1.436.079-.574 0-1.123-.027-1.647-.077a13.512 13.512 0 0 1-1.47-.22 10.624 10.624 0 0 1-1.306-.354 9.191 9.191 0 0 1-1.167-.487l-.03-.017-.005-.004a.38.38 0 0 1-.153-.184.368.368 0 0 1 .007-.289c.148-.336.303-.67.453-1.006a.368.368 0 0 1 .203-.203.367.367 0 0 1 .289-.002c.4.162.789.303 1.173.42.381.116.765.217 1.161.293zm66.601-7.326c-.35-.039-.763-.039-1.192-.039h-3.124v2.354h3.436c.313 0 .556-.002.744-.012a3.01 3.01 0 0 0 .463-.052c.105-.024.193-.055.28-.1.087-.048.176-.112.273-.193l.01-.008a.629.629 0 0 0 .114-.124.898.898 0 0 0 .146-.393 1.82 1.82 0 0 0 .019-.293c0-.13-.01-.241-.026-.34a1.125 1.125 0 0 0-.074-.247.694.694 0 0 0-.108-.172.685.685 0 0 0-.143-.131l-.007-.005c-.193-.136-.474-.207-.806-.243zm-1.028 4.19h-3.29v3.162h3.124c.343 0 .655-.012.934-.033a5.87 5.87 0 0 0 .744-.1c.208-.043.392-.096.547-.158.147-.06.274-.126.376-.203l.005-.004a1.089 1.089 0 0 0 .324-.42c.036-.086.065-.181.084-.289.019-.11.029-.231.029-.362 0-.165-.012-.313-.034-.446a1.289 1.289 0 0 0-.105-.344.898.898 0 0 0-.17-.248 1.133 1.133 0 0 0-.261-.197l-.012-.005a2.014 2.014 0 0 0-.372-.15 3.36 3.36 0 0 0-.482-.11 6.096 6.096 0 0 0-.634-.067c-.234-.014-.501-.021-.804-.021zM55.126 25.147V12.71a.373.373 0 0 1 .377-.377h1.242a.379.379 0 0 1 .38.377v4.865h3.104l2.33-3.654c.108-.174.217-.333.33-.479.114-.145.233-.276.357-.396a2.861 2.861 0 0 1 .825-.558c.115-.052.232-.098.353-.133a3.383 3.383 0 0 1 .759-.134c.133-.01.264-.014.393-.014l.205.005.215.012.222.019.238.028a.376.376 0 0 1 .327.408l-.103 1.042a.382.382 0 0 1-.376.36h-.27a7.88 7.88 0 0 0-.358.007 3.425 3.425 0 0 0-.298.027 1.71 1.71 0 0 0-.236.047c-.067.02-.131.04-.19.07l-.005.002a1.046 1.046 0 0 0-.339.229 2.496 2.496 0 0 0-.341.446l-2.313 3.532 4.612 6.477a.383.383 0 0 1 .076.227.38.38 0 0 1-.377.38h-1.578a.376.376 0 0 1-.308-.161l-4.073-5.89h-3.177v5.673a.38.38 0 0 1-.112.267.379.379 0 0 1-.267.112h-1.243a.379.379 0 0 1-.267-.112.38.38 0 0 1-.112-.267zm17.028.38h-.298a.372.372 0 0 1-.339-.215l-4.934-10.363a.5.5 0 0 1-.027-.078.388.388 0 0 1 .1-.35.38.38 0 0 1 .268-.113h1.392a.385.385 0 0 1 .339.217l4.228 9.005h.072l3.816-8.983a.361.361 0 0 1 .133-.17.393.393 0 0 1 .22-.069h1.388l.112.024.016.007a.376.376 0 0 1 .198.496L73.7 26.79c-.079.189-.167.36-.258.513a3.43 3.43 0 0 1-.295.42 2.45 2.45 0 0 1-1.133.756c-.14.045-.286.078-.439.102a3.969 3.969 0 0 1-.439.046c-.152.01-.295.011-.436.011a3.25 3.25 0 0 1-.563-.07 3.513 3.513 0 0 1-.198-.046.385.385 0 0 1-.277-.418l.146-1.016a.37.37 0 0 1 .145-.245.372.372 0 0 1 .275-.074l.114.014c.096.012.177.024.255.024.072 0 .143-.002.21-.007.072-.005.143-.015.21-.027a1.238 1.238 0 0 0 .546-.24c.053-.043.103-.091.15-.146l.01-.014a1.543 1.543 0 0 0 .26-.439l.172-.403zm7.894-2.956l1.404-7.83a.38.38 0 0 1 .374-.334h7.69a.38.38 0 0 1 .38.377V25.15a.379.379 0 0 1-.114.267.379.379 0 0 1-.267.113H88.27a.375.375 0 0 1-.267-.113.375.375 0 0 1-.112-.267v-8.845h-4.777l-1.23 7.007c-.04.212-.1.412-.177.596a2.55 2.55 0 0 1-.686.954 3.005 3.005 0 0 1-.9.513 3.594 3.594 0 0 1-.89.193c-.159.014-.319.024-.474.024-.074 0-.16-.003-.252-.01a5.7 5.7 0 0 1-.539-.07 2.685 2.685 0 0 1-.241-.054.382.382 0 0 1-.296-.4l.083-.995a.364.364 0 0 1 .122-.246.376.376 0 0 1 .255-.1h.291c.165 0 .308-.002.425-.007a3.724 3.724 0 0 0 .613-.076c.078-.02.152-.043.224-.072l.005-.002a.762.762 0 0 0 .38-.312c.049-.082.092-.175.127-.282.039-.112.07-.243.098-.391zm16.329 2.955H92.21a.375.375 0 0 1-.267-.112.373.373 0 0 1-.11-.267V14.782c0-.102.043-.198.11-.267a.375.375 0 0 1 .267-.112h1.245a.377.377 0 0 1 .377.377v2.647h3.208c.326 0 .641.022.94.06.304.04.59.102.858.181.279.084.536.186.772.305.246.124.468.267.67.427l.003.003c.217.179.41.379.575.598.164.222.303.465.415.728.112.26.193.536.25.83.055.293.084.598.084.915 0 .277-.024.544-.074.802a3.562 3.562 0 0 1-.585 1.397 3.43 3.43 0 0 1-.503.568c-.226.21-.491.398-.784.56-.289.16-.609.294-.96.403a6.879 6.879 0 0 1-1.096.239 9.137 9.137 0 0 1-1.228.078zm-2.545-6.217v4.343h2.69c.315 0 .599-.02.856-.053a4.11 4.11 0 0 0 .718-.157c.212-.067.4-.153.565-.25.17-.1.31-.213.43-.334l.002-.003a1.67 1.67 0 0 0 .374-.575l.005-.014c.045-.117.076-.24.1-.37a2.59 2.59 0 0 0 .034-.414c0-.175-.012-.34-.034-.487a2.12 2.12 0 0 0-.11-.42 1.656 1.656 0 0 0-.453-.656 2.135 2.135 0 0 0-.395-.255 2.85 2.85 0 0 0-.51-.193 4.358 4.358 0 0 0-.635-.122 6.433 6.433 0 0 0-.74-.04h-2.897zm12.012 5.84v-8.845h-3.892a.379.379 0 0 1-.267-.112.38.38 0 0 1-.112-.267v-1.14a.379.379 0 0 1 .377-.38h9.783a.379.379 0 0 1 .38.377v1.14a.375.375 0 0 1-.113.268.375.375 0 0 1-.267.112h-3.892v8.845a.379.379 0 0 1-.113.267.379.379 0 0 1-.267.112h-1.242a.379.379 0 0 1-.267-.112.379.379 0 0 1-.112-.267zm12.17.38a.372.372 0 0 1-.339-.215l-4.934-10.365a.502.502 0 0 1-.026-.078.388.388 0 0 1 .1-.35.38.38 0 0 1 .267-.113h1.393c.072 0 .14.021.2.06.06.038.108.09.139.157l4.228 9.005h.072l3.816-8.983a.362.362 0 0 1 .133-.17.393.393 0 0 1 .22-.069h1.387l.113.024.016.007a.376.376 0 0 1 .198.496l-5.14 11.855c-.078.189-.166.36-.257.513a3.432 3.432 0 0 1-.295.42 2.452 2.452 0 0 1-1.133.756c-.14.045-.286.078-.439.102a3.968 3.968 0 0 1-.439.046 6.87 6.87 0 0 1-.436.011 3.25 3.25 0 0 1-.563-.07 4.202 4.202 0 0 1-.2-.046.384.384 0 0 1-.277-.418l.145-1.016a.385.385 0 0 1 .42-.322l.115.015c.095.012.176.024.255.024.071 0 .143-.003.21-.008.071-.004.143-.014.21-.026a1.236 1.236 0 0 0 .548-.243c.05-.04.1-.088.148-.143l.012-.017c.05-.06.098-.124.14-.198.043-.074.084-.153.12-.24l.17-.401zm8.226 2.73V14.787a.38.38 0 0 1 .377-.38h.83c.083.001.162.03.224.075a.384.384 0 0 1 .136.196l.212.715c.195-.145.398-.274.61-.391.306-.167.63-.308.973-.42a7.034 7.034 0 0 1 1.221-.274c.434-.06.89-.088 1.372-.088.415 0 .818.033 1.204.095.384.064.751.16 1.095.289.346.128.667.288.963.479.294.19.565.413.804.663.243.255.465.544.658.86.189.31.348.645.477 1.007.124.348.22.723.284 1.124.062.388.095.798.095 1.228 0 .424-.036.832-.105 1.218a6.174 6.174 0 0 1-.312 1.128 5.24 5.24 0 0 1-1.23 1.882l-.003.002a5.033 5.033 0 0 1-.854.656 5.368 5.368 0 0 1-.992.477 6.113 6.113 0 0 1-1.102.286 7.545 7.545 0 0 1-2.409-.002 7.047 7.047 0 0 1-1.154-.291 6.28 6.28 0 0 1-1.373-.668v3.601a.377.377 0 0 1-.38.377h-1.242a.387.387 0 0 1-.267-.11.375.375 0 0 1-.112-.267zm7.502-11.898c-.219-.08-.46-.14-.72-.181a5.292 5.292 0 0 0-.83-.062c-.448 0-.849.021-1.216.07a5.568 5.568 0 0 0-1.927.596c-.267.14-.537.305-.813.498v5.227a5.476 5.476 0 0 0 2.561 1.204c.367.067.76.106 1.185.106.272 0 .532-.02.778-.058.25-.038.486-.093.703-.167.215-.071.42-.162.61-.269a3.17 3.17 0 0 0 1.388-1.615c.099-.245.175-.52.228-.815.05-.286.076-.596.076-.928 0-.32-.022-.62-.062-.899a4.59 4.59 0 0 0-.184-.792l-.002-.005a3.643 3.643 0 0 0-.3-.67 2.948 2.948 0 0 0-.409-.548 2.47 2.47 0 0 0-.484-.4 2.99 2.99 0 0 0-.593-.294zm11.274 3.298c-.334-.011-.711-.019-1.155-.019-.248 0-.493.015-.727.04-.229.027-.45.068-.658.123-.193.05-.38.114-.551.19a2.55 2.55 0 0 0-.441.248l-.012.01a1.71 1.71 0 0 0-.537.625c-.06.12-.105.25-.133.393a2.292 2.292 0 0 0 .007.94c.033.15.086.284.15.405l.01.015c.064.119.143.229.233.329.096.105.205.2.327.286.14.095.298.176.47.248.181.076.379.138.587.186.226.055.462.093.703.12a7.841 7.841 0 0 0 1.88-.037c.326-.05.629-.126.917-.224.282-.095.554-.214.828-.358.248-.128.496-.271.754-.433v-2.827a85.918 85.918 0 0 0-.792-.107c-.305-.038-.594-.07-.885-.095a18.04 18.04 0 0 0-.978-.06zm3.188-4.297a3.191 3.191 0 0 1 1.221 2.511v4.393c0 .498.02.94.09 1.364.07.425.19.837.39 1.286l.095.214-1.07.368-.096-.089a3.608 3.608 0 0 1-.825-1.18 6.07 6.07 0 0 1-1.696.932c-.696.25-1.469.391-2.304.391-.863 0-1.595-.064-2.232-.219-.646-.157-1.192-.408-1.672-.78a3.124 3.124 0 0 1-.951-1.202c-.203-.455-.315-.992-.315-1.622 0-.615.133-1.149.374-1.612.258-.496.64-.906 1.107-1.237.458-.32 1-.56 1.586-.72a7.305 7.305 0 0 1 1.917-.253c.72 0 1.376.03 2.054.119.596.076 1.202.195 1.874.374v-.567c0-.308-.074-.57-.205-.792a1.752 1.752 0 0 0-.62-.596c-.26-.158-.608-.272-.98-.35a6.805 6.805 0 0 0-1.357-.14c-.837 0-1.474.041-2.09.151-.617.11-1.218.289-1.981.563l-.21.076-.417-1.31.176-.078c.74-.327 1.462-.57 2.199-.73.74-.162 1.49-.24 2.282-.24.766 0 1.47.09 2.075.252.646.172 1.185.422 1.581.725l.003.003zM125.212 32.84c.276.052.544.124.794.224.253.1.489.229.696.388a2.406 2.406 0 0 1 .735.923c.086.189.153.396.195.625.046.227.07.475.07.742 0 .145-.012.286-.031.422a2.4 2.4 0 0 1-.25.754 2.34 2.34 0 0 1-.665.747c.07.035.14.073.211.116.136.079.265.167.384.26.12.093.231.193.332.3l.002.003a2.524 2.524 0 0 1 .527.901c.057.17.1.348.131.54.029.188.043.388.043.598 0 .284-.026.553-.079.806a2.795 2.795 0 0 1-.642 1.317 2.99 2.99 0 0 1-.56.486l-.007.005a3.89 3.89 0 0 1-.758.384c-.274.105-.58.19-.911.257a9.54 9.54 0 0 1-1.045.143c-.372.031-.768.046-1.185.046h-4.6a.379.379 0 0 1-.267-.112.379.379 0 0 1-.113-.268V33.084a.379.379 0 0 1 .377-.38h4.932c.28 0 .563.008.85.027a7.2 7.2 0 0 1 .831.102z"/></g></g></g><g><g opacity=".72"><path fill="#fff" d="M40.357 23.4a37.245 37.245 0 0 0 4.237 5.985v2.198a39.243 39.243 0 0 1-4.237-.447zM18.46 17.26zm0 0c.04-.093.133-.194.296-.332.286-.241.632-.42.846-.227.384.348.766.599 1.138.975-.183-1.162-.205-2.43.315-3.516.394-.82 1.047-1.347 2.052-1.808.546-.251 1.118-.476 1.512-.684.787-.417 1.51-.942 1.584-1.586.763.086 1.558.616 1.978 1.35.61 1.069.63 2.515.104 3.603a4.164 4.164 0 0 1-1.424 1.666c-1.73 1.176-2.707.781-4.384 1.164-.43.097-.854.242-1.207.431.546.72 1.154 2.605 1.422 3.628l.019-.034c1.512-1.94 3.447-2.366 5.314-2.345h.027c4.09.067 7.97 4.795 6.355 10.116-4.898-1.67-9.19-4.358-12.529-7.91-.448-1.373-1.19-3.147-2.357-3.519-.248-.08-.393-.076-.524-.128a25.35 25.35 0 0 1-.537-.844zM14.42 2.75L22.302.403l14.117 4.203a27.415 27.415 0 0 0-.217 4.68L22.299 5.151l-7.47 2.224a31.179 31.179 0 0 1-.411-4.623z"/></g><g><path fill="#fff" d="M36.417 4.61a27.42 27.42 0 0 0-.217 4.68l4.157 1.237v12.876a37.242 37.242 0 0 0 4.237 5.984V7.044l-8.177-2.433z"/></g><g><path fill="#fff" d="M44.59 33.585c-2.77 2.383-5.769 4.292-8.887 5.696a35.406 35.406 0 0 1-3.213 2.572c-2.944 2.082-6.66 4.134-10.188 5.416-3.528-1.282-7.245-3.332-10.189-5.412-1.722-1.218-4.322-3.308-6.056-5.617a31.632 31.632 0 0 1-3.14-2.738 21.043 21.043 0 0 1-2.915-3.644v3.51c0 4.665 6.279 9.919 9.724 12.354 3.635 2.57 8.22 5.1 12.578 6.682 4.356-1.583 8.943-4.117 12.579-6.687 3.387-2.397 9.518-7.52 9.709-12.13z"/></g><g opacity=".49"><path fill="#fff" d="M18.995 18.104c-.135-.054-.26-.168-.467-.494-.086-.135-.12-.235-.07-.35.175.286.354.567.537.844zm15.41 11.557c-1.075 3.548-4.589 7.357-12.108 10.225-18.06-8.038-12.571-20.23-5.754-20.34h.026c1.868-.022 3.803.404 5.315 2.344l.079.128c-.026-.087-.057-.175-.086-.267 3.34 3.552 7.631 6.24 12.529 7.91zm1.298 9.62c2.355-2.132 4.654-4.89 4.654-7.43v-.715c1.384.222 2.796.374 4.237.447v1.784c0 .071-.002.144-.005.218-2.77 2.383-5.768 4.295-8.886 5.696zM0 29.85V7.04l14.418-4.29c.024 1.595.164 3.138.41 4.624L4.237 10.527V31.85c0 1.446.744 2.96 1.817 4.39a32.176 32.176 0 0 1-3.139-2.738A21.092 21.092 0 0 1 0 29.851z"/></g></g></g></g></g></g></g></g></g></svg>